<svg width="42" height="55" viewBox="0 0 42 55" fill="none" xmlns="http://www.w3.org/2000/svg">
<path d="M21.7143 24.4285H12.8492C12.8492 24.4285 7.84918 27.3213 3.56347 39.5356C1.49935 45.4184 1 53.9999 1 53.9999H21.7143" stroke="#E31E24" stroke-width="1.5" stroke-linecap="round" stroke-linejoin="round"/>
<path d="M20.2857 24.4285H29.1508C29.1508 24.4285 34.1508 27.3213 38.4365 39.5356C40.5007 45.4184 41 53.9999 41 53.9999H20.2857" stroke="#E31E24" stroke-width="1.5" stroke-linecap="round" stroke-linejoin="round"/>
<path d="M12.7739 24.4285V20.3303L7.13477 6.34814L9.01446 1.28564H14.2776V6.34814" stroke="#E31E24" stroke-width="1.5" stroke-linecap="round" stroke-linejoin="round"/>
<path d="M29.2022 24.4285V20.3303L34.2773 6.34814L32.5856 1.28564H27.8488V6.34814" stroke="#E31E24" stroke-width="1.5" stroke-linecap="round" stroke-linejoin="round"/>
<path d="M12.8496 20.5715H29.2782" stroke="#E31E24" stroke-width="1.5" stroke-linecap="round" stroke-linejoin="round"/>
<path d="M7.13477 6.42847C8.68238 6.42847 12.2062 6.42847 13.9205 6.42847C16.0633 6.42847 18.2062 7.1999 20.7062 8.9999" stroke="#E31E24" stroke-width="1.5" stroke-linecap="round" stroke-linejoin="round"/>
<path d="M34.2773 6.42847C32.7297 6.42847 29.2059 6.42847 27.4916 6.42847C25.3488 6.42847 23.2059 7.1999 20.7059 8.9999" stroke="#E31E24" stroke-width="1.5" stroke-linecap="round" stroke-linejoin="round"/>
<path d="M15.7053 24.4285C14.2768 26.4642 11.3482 31.5642 11.0625 35.6785" stroke="#E31E24" stroke-width="1.5" stroke-linecap="round" stroke-linejoin="round"/>
<path d="M26.2947 24.4285C27.7232 26.4642 30.6518 31.5642 30.9375 35.6785" stroke="#E31E24" stroke-width="1.5" stroke-linecap="round" stroke-linejoin="round"/>
<path d="M18.9216 24.75C17.9692 27.3214 16.0645 34.2643 16.0645 41.4643" stroke="#E31E24" stroke-width="1.5" stroke-linecap="round" stroke-linejoin="round"/>
<path d="M23.0784 24.75C24.0308 27.3214 25.9355 34.2643 25.9355 41.4643" stroke="#E31E24" stroke-width="1.5" stroke-linecap="round" stroke-linejoin="round"/>
</svg>
