<svg width="60" height="55" viewBox="0 0 60 55" fill="none" xmlns="http://www.w3.org/2000/svg">
<path d="M17.5705 35.2748L6.47991 47.8441C6.47991 47.8441 4.40611 48.1933 2.69292 46.9713C1.04937 45.7989 0.859462 44.0617 1.06985 43.4798L19.8123 19.6136L15.2363 15.6995V11.2961L26.9304 1H31.5817V4.37513H28.3005L19.2837 12.7073V14.5004L28.3005 22.1817V53.9453L18.5624 53.9269L17.5705 52.9667V35.2748Z" stroke="#E31E24" stroke-width="1.5"/>
<path d="M42.4295 35.2748L53.5201 47.8441C53.5201 47.8441 55.5939 48.1933 57.3071 46.9713C58.9506 45.7989 59.1405 44.0617 58.9301 43.4798L40.1877 19.6136L44.7637 15.6995V10.2961L33.0696 1H28.4183V4.37513H31.6995L40.7163 11.7073V14.5004L31.6995 22.1817V53.9453L41.4376 53.9269L42.4295 52.9667V35.2748Z" stroke="#E31E24" stroke-width="1.5"/>
<path d="M28.418 51.0596H31.5816" stroke="#E31E24" stroke-width="1.5"/>
</svg>
