<svg width="62" height="49" viewBox="0 0 62 49" fill="none" xmlns="http://www.w3.org/2000/svg">
<path d="M1 40.0957V48.166H23.0586V44.4596C25.131 45.6951 32.3244 48.166 44.5195 48.166C56.7145 48.166 60.4407 45.0574 60.7795 43.5032V38.4817C60.0422 40.1555 55.758 43.5032 44.5195 43.5032C33.2809 43.5032 25.5295 41.2315 23.0586 40.0957H1Z" stroke="#E31E24" stroke-width="1.5" stroke-linecap="round" stroke-linejoin="round"/>
<path d="M3.15117 40.036C2.2744 38.0234 0.688255 32.9222 1.35778 28.6181C2.02731 24.314 3.78883 21.0062 4.5859 19.8903V1H26.7043C26.7641 5.54324 28.2705 16.0286 33.8181 21.6239C40.7525 28.6181 43.5023 30.2919 53.6648 32.8027C56.3549 33.4673 60.7786 35.5525 60.7786 38.5415" stroke="#E31E24" stroke-width="1.5" stroke-linecap="round" stroke-linejoin="round"/>
<path d="M2.49414 24.3738C4.54657 24.5133 9.51225 25.6411 12.9555 29.0366C16.3988 32.4321 17.4988 37.7843 17.6183 40.036" stroke="#E31E24" stroke-width="1.5" stroke-linecap="round" stroke-linejoin="round"/>
<path d="M4.58594 8.47241H27.4815" stroke="#E31E24" stroke-width="1.5" stroke-linecap="round" stroke-linejoin="round"/>
<path d="M29.7531 15.2874L23.2969 17.0807" stroke="#E31E24" stroke-width="1.5" stroke-linecap="round" stroke-linejoin="round"/>
<path d="M31.7865 19.113L26.1074 22.3411" stroke="#E31E24" stroke-width="1.5" stroke-linecap="round" stroke-linejoin="round"/>
<path d="M34.7156 22.5803L29.7539 27.0638" stroke="#E31E24" stroke-width="1.5" stroke-linecap="round" stroke-linejoin="round"/>
<path d="M37.7048 25.45L33.8789 30.8301" stroke="#E31E24" stroke-width="1.5" stroke-linecap="round" stroke-linejoin="round"/>
<path d="M9.9668 8.4725V1.11963" stroke="#E31E24" stroke-width="1.5" stroke-linecap="round" stroke-linejoin="round"/>
<path d="M15.7051 8.4725V1.11963" stroke="#E31E24" stroke-width="1.5" stroke-linecap="round" stroke-linejoin="round"/>
<path d="M21.4453 8.4725V1.11963" stroke="#E31E24" stroke-width="1.5" stroke-linecap="round" stroke-linejoin="round"/>
</svg>
