<svg width="63" height="52" viewBox="0 0 63 52" fill="none" xmlns="http://www.w3.org/2000/svg">
<path d="M14.9382 15.9942C15.6531 12.7915 15.9731 11.7238 16.0296 11.5C16.3811 10.1085 17.3557 9.5 18.03 9.4646C25.3173 9.4646 40.2112 9.4646 41.4885 9.4646C42.7658 9.4646 43.0032 10.1129 42.9623 10.4371L52.2754 46.8364C52.2754 50 49.6437 50.5875 47.8751 50.5875C45.6643 50.5875 13.3629 50.5875 10.6608 50.5875C8.49923 50.5875 8.0407 48.0868 8.08164 46.8364C8.55466 44.7045 9.11468 42.1814 9.71603 39.4732M14.9382 15.9942H6.36217L1.08094 35.861C0.835306 37.0651 1.00725 39.4732 3.66015 39.4732C6.31304 39.4732 8.80277 39.4732 9.71603 39.4732M14.9382 15.9942C13.6171 21.9138 11.4873 31.4963 9.71603 39.4732" stroke="#E31E24" stroke-width="1.5" stroke-linecap="round" stroke-linejoin="round"/>
<path d="M35.2254 9.46458C35.2664 6.87124 34.2183 1.68457 29.6986 1.68457C25.1788 1.68457 24.2946 6.87124 24.4174 9.46458" stroke="#E31E24" stroke-width="1.5" stroke-linecap="round" stroke-linejoin="round"/>
<path d="M45.6452 21L56.2275 13.3547H62C61.2221 16.5501 59.1997 23.83 57.3329 27.3865C55.466 30.9431 51.9486 35.8604 50.0654 38.5" stroke="#E31E24" stroke-width="1.5" stroke-linecap="round" stroke-linejoin="round"/>
<path d="M15.5 13.5H43" stroke="#E31E24" stroke-width="1.5" stroke-linecap="round"/>
</svg>
