<svg width="69" height="50" viewBox="0 0 69 50" fill="none" xmlns="http://www.w3.org/2000/svg">
<path d="M58 18.5001L64.7013 18.4478M64.7013 18.4478L38.5458 44.8738C31.1398 44.8738 15.4277 44.8738 11.8278 44.8738C7.32795 44.8738 5.64049 40.9365 5.64049 37.9834C5.64049 35.0304 8.17167 31.093 11.8278 31.093C15.484 31.093 29.8273 31.093 32.6397 31.093C34.0459 31.093 35.4873 32.2883 35.4346 33.7648C35.3818 35.2413 33.835 36.4366 32.6397 36.4366C30.2492 36.4366 15.484 36.4366 13.3747 36.4366C10 36.4366 10 40.6552 13.3747 40.6552C15.6246 40.6552 28.1399 40.6552 32.6397 40.6552C37.1396 40.6552 39.952 36.7178 39.952 33.2023C39.952 29.6868 36.7177 26.1712 32.6397 26.1712C28.5617 26.1712 17.8745 26.1712 14.2184 26.1712C10.5622 26.1712 7.60919 27.1556 5.21863 28.843C2.79517 30.5537 1 34.1866 1 37.7022C1 41.2177 3.95304 48.9519 11.8278 48.9519C18.1276 48.9519 33.5772 48.9519 40.5145 48.9519C48.9518 40.5146 67.5 22 67.5 22H61.1855L64.7013 18.4478Z" stroke="#E31E24" stroke-width="1.5" stroke-linecap="round" stroke-linejoin="round"/>
<path d="M4.375 29.4055C4.71249 29.1805 23.6401 10.3747 33.0617 1C40.0459 1 54.7736 1 57.811 1C61.6078 1 64.2796 2.54683 65.2639 4.37491C66.2483 6.20298 67.092 8.45292 64.9827 11.2653C63.2952 13.5153 46.3738 30.0617 38.1241 38.124" stroke="#E31E24" stroke-width="1.5" stroke-linecap="round" stroke-linejoin="round"/>
</svg>
