<svg width="35" height="24" viewBox="0 0 35 24" fill="none" xmlns="http://www.w3.org/2000/svg">
<path d="M6.97378 1.86943C7.74953 1.86943 6.6307 3.18959 8.04421 7.70586C8.60738 9.50341 9.47264 11.5359 11.0279 12.8896C13.1015 14.6835 13.3849 13.7326 13.3849 12.0618C13.3849 10.3911 13.3849 5.56142 12.9112 4.29716C12.4376 3.0329 11.5686 2.97696 12.0348 1.95884C12.3369 1.3062 14.6791 1.4069 16.7043 1.4069C18.7294 1.4069 19.8109 1.17941 19.8109 2.80541V10.6147C19.8109 11.7335 20.5868 12.6024 22.3993 10.3909C24.2119 8.17938 25.9387 4.61049 26.3676 3.61848C26.7965 2.62647 27.147 1.38086 28.8701 1.38086H32.1932C33.4538 1.38086 34.0579 2.01114 32.9689 4.29352C32.9689 4.29352 30.1494 9.40276 29.258 10.7267C27.7662 12.9382 27.5536 13.1172 29.3438 14.9931C30.8839 16.6927 32.2577 18.5359 33.4463 20.4975C34.14 21.6387 34.3974 22.9813 32.54 22.9813H28.9596C26.9755 22.9813 26.886 22.1273 25.0771 19.9978C23.1601 17.7416 22.2799 17.0441 21.7727 16.7756C20.7695 16.2498 19.7997 16.2087 19.7997 18.3307C19.7997 21.8065 20.4487 22.9813 17.8828 22.9813C15.0781 22.9813 10.2633 23.0709 6.03765 18.3943C0.327676 12.073 0.275495 1.8656 1.96872 1.8656L6.97378 1.86943Z" stroke="#57C7F7" stroke-width="1.5" stroke-linecap="round" stroke-linejoin="round"/>
</svg>
