<svg width="29" height="29" viewBox="0 0 29 29" fill="none" xmlns="http://www.w3.org/2000/svg">
<path d="M10.4533 18.2484C7.47698 14.6989 6.98033 11.8739 7.48391 10.2367C7.74091 9.40067 7.97364 8.63779 8.82799 7.95156C9.86987 7.10162 10.2553 7.3351 10.7034 7.78794L11.6723 10.3238C11.8911 11.0204 11.391 11.5221 11.0889 11.8251L10.1581 12.7587C10.6044 14.0804 11.3334 15.2882 12.294 16.2977L12.7038 16.7158C13.6757 17.6581 14.871 18.3367 16.1767 18.6874L17.4721 17.3915C17.7743 17.085 18.1424 16.5312 18.9621 16.9039L21.5251 18.0081C21.9731 18.4609 22.105 19.0531 21.0041 20.1643C18.9655 22.209 14.4472 22.2231 10.4533 18.252V18.2484Z" stroke="#4BD96A" stroke-width="1.5" stroke-linecap="round" stroke-linejoin="round"/>
<path d="M27.6115 14.3257C27.6108 16.6731 26.9922 18.9786 25.8181 21.0092C24.644 23.0399 22.956 24.7236 20.9251 25.89C18.8941 27.0565 16.5921 27.6643 14.2517 27.6521C11.9114 27.64 9.61572 27.0083 7.5969 25.8208L0.765625 27.8447L2.98481 21.2749C1.91503 19.5184 1.26543 17.5373 1.08689 15.4868C0.908347 13.4364 1.20572 11.3723 1.95572 9.45642C2.70573 7.54054 3.88798 5.82497 5.40977 4.44413C6.93157 3.06329 8.75156 2.05473 10.7271 1.49755C12.7026 0.940369 14.7799 0.849782 16.7962 1.23272C18.8125 1.61567 20.7129 2.46174 22.3486 3.70476C23.9842 4.94779 25.3106 6.55383 26.2237 8.39712C27.1368 10.2404 27.6118 12.2708 27.6115 14.3291V14.3257Z" stroke="#4BD96A" stroke-width="1.5" stroke-linecap="round" stroke-linejoin="round"/>
</svg>
